<?xml version="1.0" standalone="no"?>
<!DOCTYPE svg PUBLIC "-//W3C//DTD SVG 20010904//EN"
 "http://www.w3.org/TR/2001/REC-SVG-20010904/DTD/svg10.dtd">
<svg version="1.0" xmlns="http://www.w3.org/2000/svg"
 width="122.000000pt" height="122.000000pt" viewBox="0 0 122.000000 122.000000"
 preserveAspectRatio="xMidYMid meet">
<metadata>
Created by potrace 1.14, written by Peter Selinger 2001-2017
</metadata>
<g transform="translate(0.000000,122.000000) scale(0.100000,-0.100000)"
fill="#000000" stroke="none">
<path d="M462 1199 c-259 -66 -439 -281 -447 -537 -6 -164 45 -291 165 -413
62 -64 91 -84 168 -120 89 -42 93 -45 90 -74 -3 -26 1 -31 32 -42 40 -13 247
-10 295 5 25 7 30 14 30 40 0 28 6 34 80 71 44 22 100 57 125 78 130 107 207
268 208 431 0 96 -13 154 -59 249 -68 143 -206 258 -369 308 -81 25 -229 27
-318 4z m361 -58 c38 -15 138 -84 160 -111 109 -131 147 -256 123 -405 -21
-131 -136 -279 -266 -342 -35 -18 -65 -31 -67 -30 -1 2 -6 21 -11 45 l-10 42
52 23 c65 30 157 114 191 174 129 232 25 519 -220 608 -27 10 -54 22 -59 26
-9 8 57 -10 107 -30z m47 -88 c81 -75 115 -151 114 -258 -1 -100 -31 -173
-102 -244 -50 -50 -126 -96 -141 -87 -5 3 -11 19 -13 36 -4 27 0 32 36 50 136
67 207 223 168 365 -25 88 -101 173 -189 210 -18 8 -33 16 -33 19 0 17 113
-47 160 -91z m-425 51 c-62 -37 -92 -66 -126 -121 -26 -41 -31 -64 -35 -143
-5 -121 60 -228 171 -286 53 -28 56 -31 51 -62 -2 -18 -6 -36 -9 -38 -3 -3
-28 6 -57 21 -137 69 -214 205 -204 358 8 108 97 233 206 285 67 33 69 25 3
-14z m200 18 c-3 -3 -11 0 -18 7 -9 10 -8 11 6 5 10 -3 15 -9 12 -12z m81 -11
c200 -91 220 -345 36 -462 l-47 -30 -7 23 c-11 40 -9 45 35 73 152 95 138 303
-25 385 -66 32 -60 42 8 11z m-376 -8 c-190 -126 -248 -373 -134 -569 37 -63
121 -137 198 -173 l68 -33 -7 -36 c-4 -21 -9 -39 -11 -41 -8 -8 -150 70 -185
101 -53 49 -96 109 -124 173 -87 195 -26 421 150 556 28 21 54 39 60 39 5 0
-2 -7 -15 -17z m159 -3 c-51 -27 -106 -92 -120 -142 -25 -91 20 -194 107 -247
26 -15 42 -31 39 -39 -3 -8 -5 -22 -5 -33 0 -23 -19 -17 -73 22 -132 94 -147
284 -33 390 39 35 93 69 111 69 5 -1 -6 -9 -26 -20z m189 -9 c21 -10 49 -31
64 -46 76 -75 57 -211 -37 -272 l-33 -22 -5 32 c-3 24 1 35 15 45 55 39 76 90
64 155 -18 88 -123 137 -210 98 -103 -45 -118 -185 -27 -250 22 -16 27 -26 23
-46 -6 -32 -20 -32 -59 3 -48 45 -66 87 -61 148 11 133 151 214 266 155z m-19
-25 c67 -35 82 -122 32 -178 -16 -18 -33 -30 -37 -25 -4 4 2 17 13 30 27 29
34 56 25 91 -18 68 -111 91 -161 41 -34 -34 -35 -94 -3 -128 14 -14 19 -28 14
-31 -18 -11 -62 53 -62 90 0 96 94 153 179 110z"/>
</g>
</svg>
